#N canvas 0 22 1039 695 36;
#X text 40 17 Síntese Subtrativa;
#X obj 40 182 lop~;
#X obj 40 276 hip~;
#X obj 40 75 phasor~ 440;
#X obj 138 148 hsl 128 15 20 20000 1 0 empty empty empty -2 -8 0 10
-262144 -1 -1 5300 1;
#X floatatom 150 186 10 0 0 0 - - -;
#X obj 138 239 hsl 128 15 20 20000 0 0 empty empty empty -2 -8 0 10
-262144 -1 -1 0 1;
#X floatatom 150 277 10 0 0 0 - - -;
#X obj 208 329 hsl 128 15 20 20000 1 0 empty empty empty -2 -8 0 10
-262144 -1 -1 6100 1;
#X floatatom 230 367 10 0 0 0 - - -;
#X obj 40 367 bp~ 1 3;
#X obj 505 371 vline~;
#X obj 82 462 *~;
#X obj 64 545 dac~;
#X msg 510 119 0.5 5 \, 0 100 10;
#X msg 524 183 0.5 5 \, 0 1500 10;
#X msg 546 247 0.5 500 \, 0 500 700;
#X text 297 70 Sinal com timbre;
#X connect 1 0 2 0;
#X connect 2 0 10 0;
#X connect 3 0 1 0;
#X connect 4 0 1 1;
#X connect 4 0 5 0;
#X connect 6 0 7 0;
#X connect 6 0 2 1;
#X connect 8 0 9 0;
#X connect 8 0 10 1;
#X connect 10 0 12 0;
#X connect 11 0 12 1;
#X connect 12 0 13 0;
#X connect 12 0 13 1;
#X connect 14 0 11 0;
#X connect 15 0 11 0;
#X connect 16 0 11 0;
