#N canvas 135 66 972 661 36;
#X obj 34 187 readsf~;
#X msg 90 120 start;
#X text 36 2 Efeito Delay;
#X msg 34 58 open ../audio/bbking.wav;
#X obj 34 283 delwrite~ \$0-delay 5000;
#X obj 519 186 delread~ \$0-delay;
#X obj 240 464 *~;
#X obj 508 472 *~;
#X obj 303 339 vsl 15 30 0 100 0 0 empty empty empty 0 -9 0 10 -262144
-1 -1 2900 1;
#X obj 303 393 dbtorms;
#X text 319 459 dry;
#X text 588 465 wet;
#X obj 571 339 vsl 15 30 0 100 0 0 empty empty empty 0 -9 0 10 -262144
-1 -1 0 1;
#X obj 571 393 dbtorms;
#X obj 549 128 hsl 128 15 50 1000 0 0 empty empty empty -2 -8 0 10
-262144 -1 -1 0 1;
#X text 688 104 delay (ms);
#X obj 237 541 +~;
#X obj 219 606 dac~;
#X connect 0 0 4 0;
#X connect 0 0 6 0;
#X connect 1 0 0 0;
#X connect 3 0 0 0;
#X connect 5 0 7 0;
#X connect 6 0 16 0;
#X connect 7 0 16 1;
#X connect 8 0 9 0;
#X connect 9 0 6 1;
#X connect 12 0 13 0;
#X connect 13 0 7 1;
#X connect 14 0 5 0;
#X connect 16 0 17 0;
#X connect 16 0 17 1;
