#N canvas 19 23 1218 736 36;
#X obj 44 187 readsf~;
#X msg 100 120 start;
#X obj 250 524 *~;
#X obj 518 532 *~;
#X obj 313 399 vsl 15 30 0 100 0 0 empty empty empty 0 -9 0 10 -262144
-1 -1 0 1;
#X obj 313 453 dbtorms;
#X text 329 519 dry;
#X text 598 525 wet;
#X obj 581 399 vsl 15 30 0 100 0 0 empty empty empty 0 -9 0 10 -262144
-1 -1 2900 1;
#X obj 581 453 dbtorms;
#X obj 247 601 +~;
#X obj 229 666 dac~;
#X msg 44 58 open ../audio/clean.wav;
#X obj 518 330 clip~;
#X obj 663 178 hsl 128 15 0 1 0 0 empty empty empty -2 -8 0 10 -262144
-1 -1 1700 1;
#X obj 568 246 * -1;
#X floatatom 689 246 5 0 0 0 - - -;
#X text 46 2 Distorcao Nao-Linear 1 (clipping);
#X text 804 154 distortion;
#X connect 0 0 2 0;
#X connect 0 0 13 0;
#X connect 1 0 0 0;
#X connect 2 0 10 0;
#X connect 3 0 10 1;
#X connect 4 0 5 0;
#X connect 5 0 2 1;
#X connect 8 0 9 0;
#X connect 9 0 3 1;
#X connect 10 0 11 0;
#X connect 10 0 11 1;
#X connect 12 0 0 0;
#X connect 13 0 3 0;
#X connect 14 0 15 0;
#X connect 14 0 13 2;
#X connect 14 0 16 0;
#X connect 15 0 13 1;
