#N canvas 22 23 1210 750 36;
#X text 44 5 Compressor;
#X obj 54 197 readsf~;
#X msg 110 130 start;
#X obj 54 257 rms~;
#X obj 54 329 rmstodb;
#X floatatom 54 507 5 0 0 0 - - -;
#X floatatom 191 508 5 0 0 0 - - -;
#X obj 134 391 vsl 15 100 0 100 0 0 empty empty empty 0 -9 0 10 -262144
-1 -1 0 1;
#X obj 191 391 vsl 15 100 0 100 0 0 empty empty empty 0 -9 0 10 -262144
-1 -1 8100 1;
#X obj 135 582 >;
#X text 216 411 level;
#X obj 667 56 receive \$0-trigger;
#X obj 612 196 demux;
#X floatatom 719 126 5 0 0 0 - - -;
#X obj 135 654 send \$0-trigger;
#X obj 603 437 vline~;
#X obj 525 521 *~;
#X obj 524 607 dac~;
#X floatatom 660 598 5 0 0 0 - - -;
#X obj 647 520 snapshot~;
#X obj 775 439 metro 50;
#X obj 772 401 tgl 15 0 empty empty empty 17 7 0 10 -262144 -1 -1 1
1;
#X obj 275 296 demux~;
#X obj 275 204 tgl 50 0 empty empty empty 17 7 0 10 -204786 -1 -1 1
1;
#X text 329 202 ON/OFF;
#X msg 492 320 1 50;
#X msg 665 314 0.3 20;
#X msg 54 68 open ../audio/bbking.wav;
#X connect 1 0 3 0;
#X connect 1 0 22 0;
#X connect 2 0 1 0;
#X connect 3 0 4 0;
#X connect 4 0 5 0;
#X connect 5 0 7 0;
#X connect 5 0 9 0;
#X connect 6 0 9 1;
#X connect 8 0 6 0;
#X connect 9 0 14 0;
#X connect 11 0 13 0;
#X connect 11 0 12 0;
#X connect 12 0 25 0;
#X connect 12 1 26 0;
#X connect 13 0 12 1;
#X connect 15 0 16 1;
#X connect 15 0 19 0;
#X connect 16 0 17 0;
#X connect 16 0 17 1;
#X connect 19 0 18 0;
#X connect 20 0 19 0;
#X connect 21 0 20 0;
#X connect 22 0 17 0;
#X connect 22 0 17 1;
#X connect 22 1 16 0;
#X connect 23 0 22 0;
#X connect 25 0 15 0;
#X connect 26 0 15 0;
#X connect 27 0 1 0;
