#N canvas 0 22 1210 739 36;
#X msg 90 130 start;
#X obj 34 197 readsf~;
#X text 24 5 Freeverb~;
#X obj 50 590 freeverb~;
#X msg 306 140 roomsize \$1;
#X msg 306 202 damping \$1;
#X msg 306 264 width \$1;
#X msg 306 326 wet \$1;
#X msg 307 382 dry \$1;
#X msg 308 441 freeze \$1;
#X msg 308 503 bypass \$1;
#X text 875 290;
#X text 351 388;
#X text 371 326;
#X obj 115 672 dac~;
#X obj 614 113 hsl 100 15 0 1 0 0 empty empty empty -2 -8 0 10 -262144
-1 -1 8300 1;
#X obj 614 173 hsl 100 15 0 1 0 0 empty empty empty -2 -8 0 10 -262144
-1 -1 800 1;
#X obj 614 233 hsl 100 15 0 1 0 0 empty empty empty -2 -8 0 10 -262144
-1 -1 8200 1;
#X obj 617 295 hsl 100 15 0 1 0 0 empty empty empty -2 -8 0 10 -262144
-1 -1 9900 1;
#X obj 617 345 hsl 100 15 0 1 0 0 empty empty empty -2 -8 0 10 -262144
-1 -1 0 1;
#X obj 614 399 tgl 15 0 empty empty empty 17 7 0 10 -262144 -1 -1 0
1;
#X obj 613 464 tgl 15 0 empty empty empty 17 7 0 10 -262144 -1 -1 0
1;
#X msg 34 68 open ../audio/chorus.wav;
#X connect 0 0 1 0;
#X connect 1 0 3 0;
#X connect 1 0 3 1;
#X connect 3 0 14 0;
#X connect 3 1 14 1;
#X connect 4 0 3 0;
#X connect 5 0 3 0;
#X connect 6 0 3 0;
#X connect 7 0 3 0;
#X connect 8 0 3 0;
#X connect 9 0 3 0;
#X connect 10 0 3 0;
#X connect 15 0 4 0;
#X connect 16 0 5 0;
#X connect 17 0 6 0;
#X connect 18 0 7 0;
#X connect 19 0 8 0;
#X connect 20 0 9 0;
#X connect 21 0 10 0;
#X connect 22 0 1 0;
